<?xml version="1.0" standalone="no"?>
<!DOCTYPE svg PUBLIC "-//W3C//DTD SVG 20010904//EN"
 "http://www.w3.org/TR/2001/REC-SVG-20010904/DTD/svg10.dtd">
<svg version="1.0" xmlns="http://www.w3.org/2000/svg"
 width="260674.015748pt" height="239697.637795pt" viewBox="0 0 260674.015748 239697.637795"
 preserveAspectRatio="xMidYMid meet">
<metadata>
Created by potrace 1.13, written by Peter Selinger 2001-2015
</metadata>
<g transform="translate(0.000000,239697.637795) scale(5.669291,-5.669291)"
fill="#000000" stroke="none">
<path d="M12737 41009 l-5 -64 -1 -155 -1 -155 -5 -115 -6 -115 -15 -665 -15
-665 -28 -983 -28 -982 -4 -4 -4 -4 -1749 44 -1749 44 -3 -3 -3 -3 -11 -638
-11 -638 5 -5 5 -6 228 -4 228 -4 1518 -38 1518 -38 3 -4 4 -4 -19 -670 -18
-670 -16 -660 -16 -660 -12 -402 -13 -402 -4 -4 -5 -4 -549 19 -549 18 -4 -4
-4 -4 -5 -159 -4 -158 -15 -615 -15 -615 -6 -123 -6 -123 -177 6 -176 6 -1034
25 -1034 24 -3 -3 -4 -4 -68 -2694 -68 -2694 0 -65 1 -65 -13 -520 -13 -520
-10 -319 -10 -318 4 -5 5 -4 199 -4 198 -4 1445 -31 1445 -30 133 -6 132 -6 0
-137 0 -136 -20 -760 -20 -760 -10 -245 -10 -245 -10 -445 -10 -445 -15 -495
-15 -495 -10 -570 -11 -570 -19 -610 -20 -610 -1 -295 0 -295 -32 -852 -33
-852 -6 -6 -6 -7 -1758 41 -1757 41 -4 -3 -3 -4 -11 -113 -10 -112 6 -16 6
-16 -7 -188 -7 -188 -14 0 -14 0 -39 -20 -40 -20 0 -6 0 -5 26 -52 26 -52 3
-3 3 -3 61 30 61 31 0 118 0 117 7 128 6 127 134 0 133 0 0 15 0 15 5 0 5 0
1991 -45 1992 -45 2 2 3 3 7 51 6 51 -152 6 -152 7 -68 0 -67 0 -7 49 -7 49
-118 4 -118 3 -5 5 -4 5 28 865 27 865 11 475 11 475 0 68 0 67 44 0 43 0 7
77 6 76 0 24 0 23 -45 0 -45 0 0 98 0 97 10 280 10 280 15 615 16 615 4 345 5
345 6 53 5 52 38 0 38 0 6 68 7 67 0 23 0 22 -46 0 -45 0 6 103 5 102 10 380
9 380 23 912 22 912 122 -6 122 -6 7 73 7 72 214 -7 214 -7 0 31 0 31 -22 0
-23 0 -545 15 -545 14 -1385 26 -1385 25 -162 6 -161 6 4 52 4 51 15 685 15
685 6 97 6 97 137 -5 136 -5 1020 -25 1020 -24 13 0 12 0 0 30 0 30 -37 0 -38
1 -1133 28 -1133 28 -4 5 -4 4 14 464 14 465 1 28 0 27 135 0 135 0 0 154 0
153 -130 8 -130 7 0 11 0 12 35 1310 35 1310 0 13 0 14 58 -6 57 -5 71 -7 71
-6 7 89 6 88 6 78 6 77 -142 0 -142 0 6 278 6 277 6 222 6 223 147 -6 146 -5
1039 -25 1039 -24 2 2 3 3 11 555 11 555 12 298 12 298 320 -6 321 -6 604 -15
604 -15 4 5 5 4 -6 20 -7 20 -214 7 -215 7 0 68 0 67 -121 6 -121 5 -6 6 -6 6
18 583 17 582 9 235 10 235 10 440 10 440 0 128 0 127 45 0 45 0 0 90 0 90
-41 0 -42 0 7 280 8 280 -44 0 -43 1 -1692 43 -1693 42 -4 5 -4 4 13 538 13
539 4 2 3 3 1729 -43 1729 -44 3 3 3 3 16 514 15 515 0 58 0 57 44 0 43 0 7
61 6 62 0 23 0 24 -45 0 -45 0 0 78 0 77 10 305 10 305 5 405 5 405 10 225 10
225 0 195 0 195 7 98 6 98 314 -7 313 -7 0 18 0 17 128 -6 127 -6 280 -5 280
-5 148 -6 147 -6 0 -13 0 -12 137 -6 136 -7 111 0 111 0 37 -6 37 -6 7 -54 6
-53 -10 -253 -11 -253 -31 -1055 -30 -1055 4 -10 4 -11 -14 -524 -13 -525 -1
-87 0 -88 55 0 55 0 0 45 0 45 93 -5 92 -5 650 -15 650 -15 108 -6 107 -6 0
-34 0 -34 25 0 25 0 0 36 0 36 128 -6 127 -6 290 -5 290 -5 118 -6 117 -6 0
-39 0 -39 95 0 95 0 0 41 0 40 113 -5 112 -6 245 -5 245 -6 670 -14 670 -14
250 -6 250 -6 113 -5 112 -6 0 -38 0 -37 68 -6 67 -7 28 0 27 0 0 45 0 46 128
-6 127 -5 445 -10 445 -10 455 -10 455 -10 230 -10 230 -10 127 0 128 0 0 -45
0 -45 95 0 95 0 0 40 0 40 38 0 37 0 325 -10 325 -10 665 -15 665 -15 250 -5
250 -6 113 -5 112 -6 0 -39 0 -39 95 0 95 0 0 41 0 41 123 -6 122 -6 240 -5
240 -6 665 -14 665 -14 280 -6 280 -6 83 -5 82 -6 0 -37 0 -38 68 -6 67 -7 28
0 27 0 0 49 0 48 68 -3 67 -4 340 -10 340 -11 565 -14 565 -14 418 -12 417
-13 0 -38 0 -38 35 0 35 0 0 -40 0 -40 25 0 25 0 0 40 0 40 35 0 35 0 0 42 0
41 107 -6 106 -7 77 0 78 0 11 -45 11 -45 50 0 50 0 0 8 0 7 -14 82 -15 81
-10 19 -11 18 -425 1794 -426 1794 4 3 3 4 595 149 594 149 45 7 45 7 57 -239
57 -238 91 -380 90 -380 161 -675 162 -675 9 -25 10 -25 68 -290 69 -290 110
-459 111 -459 4 -4 4 -4 108 -4 109 -4 165 -6 165 -5 255 -10 255 -11 537 -19
537 -20 51 0 50 0 0 113 0 114 7 212 6 212 91 -5 91 -6 213 -6 212 -5 0 49 0
50 -305 7 -305 7 0 22 0 21 39 1698 39 1699 4 3 3 3 3833 -102 3833 -103 3 -4
3 -4 -47 -1708 -47 -1708 -4 -3 -4 -4 -555 14 -555 13 -47 1 -48 0 0 -44 0
-43 198 -7 197 -6 295 -5 295 -5 113 -6 112 -6 0 -111 0 -112 -7 -112 -6 -113
-44 0 -43 0 0 -95 0 -95 20 0 20 0 -5 -22 -5 -23 -2 -477 -3 -478 -22 0 -23 0
0 -40 0 -40 -102 0 -103 0 -445 15 -445 15 -27 0 -28 0 0 -55 0 -55 23 0 23 0
638 -15 639 -16 5 6 5 5 8 468 8 467 10 280 11 280 10 365 11 365 39 1619 40
1619 -4 4 -4 4 -243 5 -244 4 -3674 75 -3674 75 -3 -3 -4 -3 -55 -1800 -55
-1799 0 -302 0 -302 -87 5 -88 5 -417 14 -416 15 -21 0 -21 0 0 54 0 53 -67 6
-68 7 -27 0 -28 0 0 -55 0 -55 -67 1 -68 0 -337 13 -338 12 -4 5 -3 4 -103
430 -102 430 -14 35 -14 35 -60 260 -61 260 -3 30 -3 30 -161 675 -162 675
-160 674 -160 674 -3 3 -4 4 -279 -64 -279 -65 -469 -110 -469 -111 -4 -3 -3
-3 421 -1760 420 -1759 23 -99 24 -99 -177 7 -176 6 -425 10 -425 10 -705 15
-705 15 -395 10 -395 10 -385 10 -385 10 -485 10 -485 11 -1235 29 -1235 29
-250 6 -250 6 -540 15 -540 14 -370 10 -370 10 -590 10 -590 10 -580 16 -580
16 -215 3 -215 4 -420 11 -420 10 -255 10 -255 10 -1220 30 -1220 31 -265 9
-265 9 -320 1 -320 1 -258 8 -258 8 -3 4 -4 4 13 530 14 530 31 1079 31 1080
-12 7 -12 7 12 268 12 269 5 78 6 77 -24 0 -23 0 -314 11 -314 10 -6 -10 -6
-9 -554 14 -555 14 -5 9 -6 9 -356 7 -356 7 -6 -63z"/>
<path d="M38220 37020 l0 -50 8 0 7 0 2405 -60 2405 -60 6 0 7 0 7 46 7 46 -4
4 -4 4 -2415 60 -2414 60 -7 0 -8 0 0 -50z"/>
<path d="M38760 36411 l0 -88 68 -6 67 -7 28 0 27 0 0 95 0 95 -95 0 -95 0 0
-89z"/>
<path d="M41720 36341 l0 -88 68 -6 67 -7 28 0 27 0 0 89 0 88 -67 6 -68 7
-27 0 -28 0 0 -89z"/>
<path d="M15020 35837 l0 -74 -6 -91 -7 -92 62 0 61 0 0 66 0 66 143 -6 142
-6 300 -5 300 -6 825 -19 825 -20 375 -10 375 -10 430 -10 430 -10 255 -10
255 -10 920 -20 920 -20 300 -5 300 -6 260 -10 260 -9 1220 -30 1220 -30 1195
-25 1195 -25 315 -10 315 -11 1460 -34 1460 -35 305 -10 305 -10 445 -11 445
-10 445 -6 445 -5 84 -7 85 -6 114 -485 114 -485 304 -1269 304 -1269 3 -3 3
-4 69 20 69 20 7 -8 6 -7 353 -1485 352 -1485 220 -915 219 -915 149 -620 149
-620 401 -1655 400 -1655 6 -16 5 -17 -71 -17 -72 -18 7 -26 7 -26 358 -1490
358 -1490 4 -20 3 -20 -155 3 -155 3 -265 10 -265 9 -615 15 -615 15 -385 10
-385 10 -705 15 -705 15 -385 10 -385 10 -615 15 -615 14 -260 6 -260 6 -1235
30 -1235 30 -860 19 -860 20 -325 4 -325 5 -245 10 -245 11 -338 10 -337 11
-8 -5 -8 -5 -524 16 -525 15 -230 3 -230 3 -455 11 -455 11 -440 10 -440 10
-270 5 -270 5 -178 17 -179 17 -6 -11 -7 -11 -550 13 -550 14 -290 11 -290 11
-590 16 -590 15 -190 4 -190 4 -615 15 -615 15 -530 10 -530 10 -122 6 -123 6
0 92 1 91 9 160 9 160 6 495 6 495 9 380 10 380 11 610 10 610 2 1 2 1 904
-23 904 -24 3 3 3 3 16 589 15 590 10 295 10 295 65 2695 64 2695 11 285 10
285 11 594 10 593 -4 4 -3 4 -820 20 -819 21 -84 5 -84 6 7 277 6 276 15 710
15 710 15 465 15 464 0 18 0 18 -60 0 -60 0 0 -17 0 -18 -20 -960 -20 -960
-10 -350 -11 -350 -6 -101 -6 -102 -117 5 -117 6 -8 -68 -7 -67 -194 7 -194 7
0 -26 0 -26 33 0 32 0 325 -10 325 -11 863 -18 863 -19 4 -4 4 -4 -9 -334 -9
-335 -16 -700 -15 -700 -10 -295 -10 -295 0 -27 0 -28 -133 0 -134 0 -6 -112
-7 -113 0 -36 0 -37 135 -7 135 -7 0 -12 0 -11 -35 -1310 -35 -1310 0 -14 0
-13 -135 7 -135 7 0 -43 0 -44 -6 -111 -7 -111 142 -8 141 -7 0 -26 0 -27 -10
-295 -10 -295 -15 -700 -15 -700 -6 -264 -7 -264 -139 7 -138 6 0 -62 0 -63
-9 -14 -9 -13 -553 11 -554 11 -335 10 -335 10 -187 6 -188 6 0 -25 0 -24 190
-8 190 -7 0 -68 0 -67 68 -6 67 -7 53 0 52 0 0 -272 0 -273 -10 -240 -9 -240
-11 -455 -10 -455 -5 -290 -5 -290 -15 -524 -15 -524 3 -3 2 -2 58 -7 57 -7 0
46 0 47 143 -6 142 -5 520 -10 520 -10 188 -6 187 -6 0 -34 0 -34 25 0 25 0 0
36 0 37 148 -7 147 -6 310 -5 310 -5 73 -6 72 -6 0 -39 0 -39 95 0 95 0 0 41
0 40 93 -5 92 -6 270 -5 270 -6 665 -14 665 -14 250 -6 250 -6 113 -5 112 -6
0 -33 0 -32 68 -6 67 -7 28 0 27 0 0 41 0 40 133 -6 132 -5 435 -10 435 -10
260 -10 260 -10 450 -10 450 -10 113 0 112 0 0 -39 0 -38 68 -6 67 -7 23 0 22
0 0 41 0 42 363 -7 362 -7 520 -14 520 -15 450 -10 450 -10 63 0 62 0 0 -39 0
-38 68 -6 67 -7 28 0 27 0 0 40 0 40 163 0 162 0 653 -15 652 -14 9 -5 8 -5
454 -11 454 -10 113 -6 112 -6 0 -38 0 -37 68 -6 67 -7 28 0 27 0 0 46 0 45
113 -5 112 -6 250 -5 250 -6 435 -9 435 -10 545 -15 545 -16 43 -5 42 -5 0
-40 0 -39 40 0 40 0 0 -35 0 -35 20 0 20 0 0 35 0 35 35 0 35 0 0 46 0 46 223
-6 222 -6 365 -5 365 -6 220 -9 220 -9 500 -11 500 -11 83 -5 82 -6 0 -44 0
-44 95 0 95 0 0 45 0 45 133 -5 132 -5 430 -10 430 -10 315 -10 315 -11 122
-5 123 -6 10 -39 11 -39 56 0 55 0 -6 23 -6 22 -375 1575 -376 1575 -6 23 -5
22 18 0 19 0 163 41 162 42 0 25 0 24 -26 -6 -26 -7 -99 -23 -99 -24 -9 37
-10 36 -561 2345 -561 2345 -189 785 -190 785 -373 1530 -374 1530 2 3 2 2
124 31 123 30 4 3 3 4 -11 42 -11 41 -27 -5 -27 -6 -163 -34 -164 -34 -4 12
-4 11 -339 1420 -340 1420 -61 250 -61 250 -3 35 -4 35 -17 66 -17 67 -45 6
-46 6 -14 0 -15 0 6 -27 7 -28 5 -17 5 -18 -114 0 -114 0 -226 7 -227 6 0 44
0 43 -35 0 -35 0 0 35 0 35 -25 0 -25 0 0 -35 0 -35 -35 0 -35 0 0 -40 0 -40
-92 0 -93 0 -610 15 -610 15 -295 9 -295 10 -310 6 -310 5 -82 6 -83 6 0 37 0
38 -67 6 -68 7 -22 0 -23 0 0 -46 0 -46 -157 6 -158 6 -675 15 -675 15 -285
10 -285 10 -272 7 -273 6 0 37 0 37 -67 6 -68 7 -27 0 -28 0 0 -40 0 -40 -22
0 -23 0 -1260 30 -1260 30 -112 6 -113 6 0 39 0 39 -95 0 -95 0 0 -41 0 -40
-127 5 -128 6 -455 10 -455 10 -435 11 -435 11 -200 3 -200 4 -167 0 -168 1 0
45 0 45 -95 0 -95 0 0 -40 0 -40 -28 0 -27 0 -540 15 -540 15 -255 10 -255 9
-385 6 -385 5 -182 6 -183 6 0 38 0 37 -67 6 -68 7 -27 0 -28 0 0 -45 0 -45
-277 5 -278 6 -262 5 -263 6 0 39 0 39 -15 0 -15 0 0 -41 0 -41 -97 6 -98 6
-240 10 -240 9 -450 11 -450 11 -62 5 -63 6 0 37 0 38 -46 7 -47 6 -13 0 -14
0 0 -73z"/>
<path d="M35123 35388 l6 -23 45 -205 45 -205 85 -340 85 -340 246 -1025 246
-1025 5 -16 4 -16 -176 -44 -176 -44 -9 -6 -10 -6 12 -47 12 -47 16 5 16 5 99
26 99 26 7 -8 7 -8 417 -1720 416 -1720 130 -560 130 -560 35 -125 35 -125
149 -625 150 -625 401 -1650 401 -1650 2 -19 2 -20 -122 -29 -123 -29 0 -11 0
-12 8 -12 8 -13 182 42 182 42 9 -10 8 -9 303 -1285 302 -1285 94 -395 95
-395 24 -89 25 -89 3 -3 2 -2 54 -7 54 -7 -7 26 -6 26 -6 25 -6 25 118 -5 119
-6 735 -19 735 -20 223 -6 222 -7 0 -43 0 -44 95 0 95 0 0 42 0 41 285 -7 285
-6 0 44 0 43 -182 7 -183 6 -420 11 -420 10 -1 2 -2 2 43 1738 43 1738 3 4 4
3 1753 -47 1753 -48 3 -4 4 -4 -43 -1728 -43 -1728 -3 -4 -4 -3 -619 14 -619
15 -3 -3 -3 -4 -7 -40 -6 -41 138 -6 139 -6 448 -13 447 -12 0 -43 0 -43 13 0
12 0 -7 -222 -8 -223 -6 -277 -6 -278 -14 0 -14 0 0 -95 0 -95 41 0 42 0 -5
-225 -5 -226 -4 -4 -4 -3 -570 13 -570 14 -47 1 -48 0 0 -50 0 -50 43 0 42 -1
578 -14 579 -14 3 -3 3 -3 -43 -1753 -43 -1753 -4 -4 -3 -3 -1753 43 -1754 43
-3 4 -3 3 43 1753 42 1753 5 4 4 4 564 -14 565 -15 38 0 37 0 0 50 0 50 -42 0
-43 1 -550 14 -550 14 -300 10 -300 11 -384 10 -383 11 -4 -4 -4 -3 370 -1550
371 -1549 3 -11 4 -12 -196 -56 -197 -56 -210 -51 -210 -51 -240 -53 -240 -53
-1 1 -1 2 -437 1850 -438 1850 -50 208 -50 207 -59 0 -59 0 0 -8 0 -7 9 -33
10 -32 -335 0 -335 0 -242 10 -242 10 -516 15 -516 15 -62 0 -61 0 0 45 0 45
-95 0 -95 0 0 -40 0 -40 -67 0 -68 0 -300 10 -300 9 -420 10 -420 10 -500 11
-500 10 -102 6 -103 6 0 39 0 39 -30 0 -30 0 0 35 0 35 -25 0 -25 0 0 -35 0
-35 -35 0 -35 0 0 -40 0 -40 -127 5 -128 5 -428 11 -427 10 -8 -5 -9 -5 -809
19 -809 20 -17 0 -18 0 0 45 0 45 -95 0 -95 0 0 -44 0 -43 -92 3 -93 4 -485
10 -485 11 -245 9 -245 9 -465 11 -465 10 -102 6 -103 6 0 38 0 37 -67 6 -68
7 -27 0 -28 0 0 -46 0 -45 -132 6 -133 5 -440 11 -440 10 -232 9 -231 10 -524
5 -523 5 -57 6 -58 6 0 44 0 44 -95 0 -95 0 0 -45 0 -45 -87 5 -88 5 -495 15
-495 15 -730 15 -730 15 -82 0 -83 0 0 39 0 38 -67 6 -68 7 -27 0 -28 0 0 -40
0 -40 -120 0 -120 0 -742 15 -743 15 -240 10 -240 10 -287 6 -288 7 0 49 0 48
-95 0 -95 0 0 -45 0 -45 -37 0 -38 1 -495 14 -495 14 -2 1 -3 0 0 34 0 34 -15
6 -15 5 0 -40 0 -40 -242 6 -243 6 -440 9 -440 10 -172 7 -173 6 0 39 0 38
-59 0 -59 0 0 -227 -1 -228 -41 -1510 -40 -1510 0 -357 0 -358 -149 7 -149 6
-7 -52 -7 -51 -176 6 -175 7 6 -48 7 -48 0 -12 0 -12 372 -7 372 -7 2 -2 1 -2
-19 -555 -19 -555 240 -235 240 -235 131 -183 131 -183 156 -257 157 -257 109
-230 110 -230 98 -260 97 -260 -1 -1 -2 -1 -734 17 -733 17 -9 14 -9 14 0 6 0
6 -38 17 -38 17 -36 -17 -35 -17 -17 -33 -16 -34 16 -40 16 -39 20 -7 20 -6
-6 -176 -6 -177 -6 -327 -6 -328 31 0 31 0 0 68 1 67 9 430 9 429 18 13 18 12
11 10 12 10 3 9 4 10 743 -18 742 -17 5 -5 5 -5 75 -269 75 -269 34 -275 34
-275 11 -145 11 -145 -1 -235 -1 -235 -9 -190 -10 -190 -8 -80 -8 -80 -57
-298 -57 -297 -83 -283 -82 -282 -64 2 -65 3 -650 20 -650 21 -42 5 -42 5 -6
20 -6 19 -25 6 -25 6 5 77 6 76 5 255 5 255 6 167 7 168 -30 0 -30 0 -7 -168
-6 -167 -5 -260 -6 -260 -5 -72 -6 -72 -17 -6 -18 -5 -17 -38 -17 -38 16 -41
16 -40 38 -17 37 -17 36 17 36 17 11 24 11 24 58 -5 57 -6 645 -16 645 -15 32
-7 32 -7 -98 -223 -99 -223 -128 -237 -128 -237 -151 -233 -152 -233 -159
-187 -158 -187 -249 -251 -248 -251 -5 -189 -4 -189 -15 -570 -15 -570 0 -143
0 -142 -67 5 -68 5 -453 10 -454 10 -134 0 -134 0 0 -35 0 -35 -155 0 -155 0
0 -45 0 -45 40 0 40 0 0 -7 0 -8 -15 -559 -15 -559 -2 -2 -3 -3 -268 13 -267
12 -5 5 -5 4 15 550 15 549 0 8 0 7 40 0 40 0 0 45 0 45 -82 0 -83 0 -67 7
-68 6 0 38 0 39 -135 0 -135 0 0 -120 0 -120 80 0 80 0 0 -22 0 -23 -10 -350
-11 -350 -5 -43 -5 -42 -52 5 -52 4 -192 6 -193 6 0 -29 0 -30 185 -7 185 -7
0 -24 0 -24 60 0 60 0 0 -170 0 -170 23 0 22 0 579 -15 579 -16 3 4 4 3 15
635 16 634 5 44 6 44 546 -7 547 -6 111 -6 112 -7 6 204 7 204 19 575 20 575
0 171 0 171 216 199 216 199 168 215 168 215 164 235 164 235 136 260 136 260
92 240 92 240 15 11 14 12 94 298 95 298 51 286 51 285 3 70 3 70 11 210 11
210 -1 360 -2 360 -38 302 -38 302 -76 298 -76 298 -91 275 -91 275 -125 250
-124 250 -156 260 -155 260 -158 205 -157 205 -196 225 -196 225 1 230 1 230
7 325 7 325 -4 28 -4 27 -61 0 -60 0 6 388 7 387 35 1540 35 1540 6 133 6 133
147 -6 146 -6 235 -9 235 -10 315 -10 315 -10 325 -5 325 -5 755 -20 755 -20
255 -10 255 -10 1515 -30 1515 -30 260 -10 260 -10 920 -20 920 -20 280 -10
280 -10 302 0 302 0 1198 -35 1198 -35 270 -10 270 -10 1518 -35 1519 -35 7 4
7 5 565 -14 564 -15 615 -20 615 -20 265 0 265 0 1225 -35 1225 -35 594 -10
595 -10 4 -5 4 -4 479 -2007 479 -2007 3 -3 4 -4 244 49 244 49 284 72 285 71
160 35 160 35 35 4 34 4 34 12 34 11 -6 17 -7 16 -20 75 -20 75 -347 1455
-348 1455 1 1 1 1 325 -9 325 -9 242 -7 241 -7 5 -5 5 -5 -43 -1740 -44 -1740
-6 -62 -6 -63 8 0 7 0 1834 -40 1835 -40 3 2 2 3 46 1865 46 1865 5 55 5 55 6
575 5 575 10 170 11 170 3 230 4 230 46 1654 45 1654 -3 3 -3 4 -1839 45
-1838 45 -3 -3 -4 -3 -44 -1788 -44 -1787 -3 -4 -4 -3 -817 22 -818 23 -7 7
-7 7 -64 262 -63 262 -340 1439 -339 1438 0 12 0 11 -9 13 -8 13 -72 -17 -72
-17 -8 9 -8 9 -388 1640 -387 1640 -170 710 -169 710 -169 700 -169 700 -405
1630 -404 1630 -3 20 -4 20 84 22 83 22 5 4 4 5 -326 1324 -326 1323 -55 213
-56 213 4 3 3 3 995 -28 995 -28 365 -6 365 -5 1010 -25 1010 -25 275 -9 275
-10 285 -6 285 -6 925 -24 925 -25 13 0 12 0 0 50 0 50 -32 0 -33 1 -505 14
-505 14 -32 1 -33 0 0 45 0 45 -95 0 -95 0 0 -40 0 -40 -102 0 -103 0 -430 10
-430 10 -295 10 -295 10 -465 10 -465 11 -92 5 -93 6 0 44 0 44 -90 0 -90 0 0
-45 0 -46 -162 6 -163 6 -390 10 -390 9 -800 20 -800 20 -42 0 -43 0 0 45 0
45 -95 0 -95 0 0 -40 0 -40 -172 0 -173 0 -82 6 -81 7 -7 43 -6 44 -61 0 -60
0 5 -22z m-22947 -32451 l4 -4 -15 -588 -16 -588 4 -3 3 -3 338 -16 339 -16 3
3 3 3 11 600 11 599 3 4 3 3 80 -7 80 -7 -4 -126 -4 -126 -13 -493 -13 -492
-4 -4 -4 -4 -488 13 -488 12 -6 6 -5 6 11 318 11 318 0 181 0 181 7 123 6 123
70 -6 69 -6 4 -4z"/>
<path d="M12504 29403 l-31 -15 -17 -34 -16 -34 12 -26 12 -26 37 -18 36 -19
35 9 34 10 17 35 17 35 -16 39 -16 40 -30 10 -31 11 -6 -1 -6 0 -31 -16z"/>
<path d="M14882 29347 l-23 -11 -19 -37 -19 -36 9 -35 10 -34 37 -18 37 -17
37 17 38 17 10 30 11 30 -10 37 -10 36 -35 17 -36 17 -7 -1 -7 0 -23 -12z"/>
<path d="M12423 26423 l-33 -16 -10 -32 -10 -31 10 -30 11 -31 35 -17 35 -16
39 10 39 11 11 39 10 39 -16 35 -17 35 -30 11 -30 10 -6 -1 -6 0 -32 -16z"/>
<path d="M14803 26363 l-33 -16 -10 -32 -10 -31 10 -30 11 -31 36 -17 36 -17
29 12 29 12 20 38 19 38 -17 35 -16 35 -30 11 -30 10 -6 -1 -6 0 -32 -16z"/>
<path d="M42490 19099 l0 -51 88 7 87 7 1 2 2 1 7 43 7 42 -96 0 -96 0 0 -51z"/>
<path d="M41270 17968 l0 -23 -7 -67 -6 -68 97 0 96 0 0 84 0 83 -67 6 -68 7
-22 0 -23 0 0 -22z"/>
<path d="M42456 17188 l-6 -133 -6 -121 -6 -121 87 -8 86 -7 4 4 3 3 7 258 7
257 -85 0 -85 0 -6 -132z"/>
<path d="M7523 13444 l-313 -196 16 -27 16 -26 22 -27 21 -28 302 201 302 202
-25 48 -24 49 -3 0 -2 0 -312 -196z"/>
<path d="M6017 12008 l-217 -313 22 -16 22 -17 26 -16 27 -15 204 291 204 291
7 12 7 12 -42 41 -43 42 -217 -312z"/>
<path d="M5485 11129 l-7 -21 -294 8 -294 7 0 -4 -1 -4 -5 -195 -4 -195 -16
-599 -15 -599 4 -3 3 -3 204 -26 205 -26 125 -69 126 -70 104 -120 104 -121
64 -119 63 -119 25 -146 24 -145 -24 -143 -24 -144 -70 -139 -70 -139 -117
-105 -116 -105 -134 -67 -134 -68 -193 -15 -193 -15 -7 0 -8 0 0 -44 0 -43
-46 -7 -47 -6 -63 0 -64 0 0 -110 0 -110 158 0 157 0 190 25 190 25 185 85
185 86 149 137 148 137 95 190 96 190 32 110 33 110 7 153 7 152 -36 148 -37
148 -77 141 -77 141 -140 157 -140 156 -182 95 -182 95 -183 33 -183 32 2 440
3 439 6 123 6 123 272 -7 272 -7 32 73 32 73 -2 3 -3 2 -53 21 -53 21 -4 0 -4
0 -6 -21z"/>
<path d="M8430 11030 l-35 -18 -18 -36 -17 -36 16 -39 15 -38 38 -17 37 -17
42 16 42 17 10 38 10 39 -15 39 -16 39 -35 16 -35 17 -2 0 -2 -1 -35 -19z"/>
<path d="M12014 10939 l-31 -9 -17 -38 -17 -38 16 -41 16 -40 38 -17 37 -17
41 16 40 16 17 38 17 37 -16 42 -17 42 -37 10 -36 10 -10 -1 -10 -1 -31 -9z"/>
<path d="M7128 7443 l-38 -15 -10 -36 -10 -36 10 -37 10 -36 38 -17 38 -17 40
16 41 16 17 36 17 37 -16 36 -17 37 -34 17 -35 16 -7 -1 -7 0 -37 -16z"/>
<path d="M8323 7419 l-32 -9 -11 -40 -11 -40 11 -38 10 -39 38 -17 38 -17 41
16 40 16 17 38 17 37 -16 42 -17 42 -37 10 -36 10 -10 -1 -10 -1 -32 -9z"/>
<path d="M11939 7324 l-36 -15 -16 -35 -17 -34 16 -39 15 -38 38 -17 37 -17
40 16 41 16 17 36 17 37 -16 36 -17 37 -34 17 -35 16 -7 -1 -7 0 -36 -15z"/>
<path d="M7324 3173 l-31 -15 -17 -34 -16 -34 16 -38 15 -39 36 -17 37 -17 37
16 37 17 17 37 16 37 -16 42 -17 42 -37 10 -36 10 -5 -1 -5 0 -31 -16z"/>
<path d="M10334 3103 l-31 -15 -17 -36 -17 -36 16 -37 17 -37 37 -17 38 -17
40 11 41 11 11 45 11 44 -16 34 -17 34 -34 17 -34 16 -7 -1 -7 0 -31 -16z"/>
<path d="M8250 2089 l0 -24 -15 -519 -16 -519 5 -4 5 -5 193 -4 193 -4 399
-11 398 -10 5 4 4 5 4 138 4 139 5 275 6 275 6 73 6 74 171 -6 172 -6 303 -6
302 -6 0 26 0 27 190 -7 190 -7 0 30 0 30 -107 7 -108 6 -260 5 -260 5 -349
11 -348 10 -4 -3 -3 -4 -14 -487 -14 -488 -4 -3 -4 -4 -478 13 -477 12 -4 4
-3 4 13 479 14 479 -2 2 -3 3 -57 7 -58 7 0 -23z"/>
</g>
</svg>
